<svg xmlns="http://www.w3.org/2000/svg" xmlns:xlink="http://www.w3.org/1999/xlink" viewBox="0 0 75 93.75" version="1.1" x="0px" y="0px"><g><path style="" d="M 55.265625 2.84375 C 56.988281 2.84375 58.390625 4.246094 58.390625 5.96875 L 58.390625 69.03125 C 58.390625 70.753906 56.988281 72.15625 55.265625 72.15625 L 19.734375 72.15625 C 18.011719 72.15625 16.609375 70.753906 16.609375 69.03125 L 16.609375 5.96875 C 16.609375 4.246094 18.011719 2.84375 19.734375 2.84375 L 55.265625 2.84375 M 55.265625 1.28125 L 19.734375 1.28125 C 17.144531 1.28125 15.046875 3.382812 15.046875 5.96875 L 15.046875 69.03125 C 15.046875 71.617188 17.144531 73.71875 19.734375 73.71875 L 55.265625 73.71875 C 57.855469 73.71875 59.953125 71.617188 59.953125 69.03125 L 59.953125 5.96875 C 59.953125 3.382812 57.855469 1.28125 55.265625 1.28125 Z M 55.265625 1.28125 " stroke="none" fill-rule="nonzero" fill="rgb(0%,0%,0%)" fill-opacity="1"/><path style="" d="M 43.976562 32.714844 C 43.328125 32.714844 42.703125 32.8125 42.109375 32.992188 C 43.265625 31.820312 43.976562 30.210938 43.976562 28.4375 C 43.976562 24.855469 41.078125 21.957031 37.5 21.957031 C 33.921875 21.957031 31.019531 24.859375 31.019531 28.4375 C 31.019531 30.210938 31.734375 31.820312 32.890625 32.992188 C 32.300781 32.8125 31.671875 32.714844 31.019531 32.714844 C 27.441406 32.714844 24.539062 35.613281 24.539062 39.195312 C 24.539062 42.773438 27.441406 45.675781 31.019531 45.675781 C 33.621094 45.675781 35.855469 44.140625 36.890625 41.929688 C 36.171875 45.636719 34.257812 47.0625 34.257812 47.0625 L 40.273438 47.0625 C 40.273438 47.0625 38.320312 45.570312 37.992188 41.914062 C 38.945312 44.316406 41.246094 45.675781 43.980469 45.675781 C 47.558594 45.675781 50.460938 42.773438 50.460938 39.195312 C 50.460938 35.613281 47.558594 32.714844 43.976562 32.714844 Z M 43.976562 32.714844 " stroke="none" fill-rule="nonzero" fill="rgb(0%,0%,0%)" fill-opacity="1"/><path style="" d="M 22.335938 6.78125 C 22.195312 6.78125 22.0625 6.804688 21.9375 6.84375 C 22.183594 6.59375 22.335938 6.253906 22.335938 5.878906 C 22.335938 5.121094 21.71875 4.507812 20.964844 4.507812 C 20.207031 4.507812 19.59375 5.121094 19.59375 5.878906 C 19.59375 6.253906 19.746094 6.59375 19.988281 6.84375 C 19.863281 6.804688 19.730469 6.78125 19.59375 6.78125 C 18.835938 6.78125 18.222656 7.398438 18.222656 8.152344 C 18.222656 8.910156 18.835938 9.523438 19.59375 9.523438 C 20.144531 9.523438 20.617188 9.199219 20.835938 8.734375 C 20.683594 9.515625 20.277344 9.820312 20.277344 9.820312 L 21.550781 9.820312 C 21.550781 9.820312 21.136719 9.503906 21.066406 8.730469 C 21.265625 9.238281 21.753906 9.523438 22.335938 9.523438 C 23.09375 9.523438 23.707031 8.910156 23.707031 8.152344 C 23.707031 7.394531 23.09375 6.78125 22.335938 6.78125 Z M 22.335938 6.78125 " stroke="none" fill-rule="nonzero" fill="rgb(0%,0%,0%)" fill-opacity="1"/><path style="" d="M 52.484375 68.089844 C 52.621094 68.089844 52.753906 68.070312 52.878906 68.03125 C 52.636719 68.28125 52.484375 68.621094 52.484375 68.996094 C 52.484375 69.753906 53.097656 70.367188 53.855469 70.367188 C 54.613281 70.367188 55.226562 69.753906 55.226562 68.996094 C 55.226562 68.621094 55.074219 68.28125 54.828125 68.03125 C 54.953125 68.070312 55.089844 68.089844 55.226562 68.089844 C 55.984375 68.089844 56.597656 67.476562 56.597656 66.71875 C 56.597656 65.964844 55.984375 65.347656 55.226562 65.347656 C 54.675781 65.347656 54.203125 65.671875 53.984375 66.140625 C 54.136719 65.355469 54.539062 65.054688 54.539062 65.054688 L 53.265625 65.054688 C 53.265625 65.054688 53.679688 65.371094 53.75 66.144531 C 53.550781 65.636719 53.0625 65.347656 52.484375 65.347656 C 51.726562 65.347656 51.113281 65.964844 51.113281 66.71875 C 51.113281 67.476562 51.726562 68.089844 52.484375 68.089844 Z M 52.484375 68.089844 " stroke="none" fill-rule="nonzero" fill="rgb(0%,0%,0%)" fill-opacity="1"/></g><text x="0" y="90" fill="#000000" font-size="5px" font-weight="bold" font-family="'Helvetica Neue', Helvetica, Arial-Unicode, Arial, Sans-serif">Created by Lloyd Humphreys</text><text x="0" y="95" fill="#000000" font-size="5px" font-weight="bold" font-family="'Helvetica Neue', Helvetica, Arial-Unicode, Arial, Sans-serif">from the Noun Project</text></svg>